<svg id="Layer_1" data-name="Layer 1" xmlns="http://www.w3.org/2000/svg" viewBox="0 0 382.51 115.41"><defs><style>.cls-1{fill:#00aeef;}</style></defs><title>Don</title><path class="cls-1" d="M1556.74,315.77a25,25,0,0,0-7.71-.38,13.15,13.15,0,0,1,3.22-.39A13.32,13.32,0,0,1,1556.74,315.77Z" transform="translate(-1225.84 -212.12)"/><path class="cls-1" d="M1565.64,327.53a24.82,24.82,0,0,0-.53-3A13.79,13.79,0,0,1,1565.64,327.53Z" transform="translate(-1225.84 -212.12)"/><path class="cls-1" d="M1468.87,212.6h-97.38a41.82,41.82,0,0,0-30.38,13.23,46.2,46.2,0,0,0-12.58,31.93c0,24.94,19.23,45.16,43,45.16h97.38a41.82,41.82,0,0,0,30.38-13.23,46.2,46.2,0,0,0,12.58-31.93C1511.83,232.82,1492.6,212.6,1468.87,212.6Zm7.87,58.62a20.27,20.27,0,0,1-14.16,5.69h-85.37c-11.06,0-20-8.7-20-19.43a19.07,19.07,0,0,1,5.87-13.74,20.27,20.27,0,0,1,14.16-5.69h85.37c11.06,0,20,8.7,20,19.43A19.07,19.07,0,0,1,1476.75,271.22Z" transform="translate(-1225.84 -212.12)"/><path class="cls-1" d="M1608.35,254.71v48h-29.09V254.24c0-.31,0-.63,0-.93a14.42,14.42,0,0,0-.55-3.09,14,14,0,0,0-2.27-4.45,13.77,13.77,0,0,0-1.25-1.44,14,14,0,0,0-9.92-4.11,13.74,13.74,0,0,0-3.37.41,14,14,0,0,0-10.66,13.62v48.42h-28v-48a42.59,42.59,0,1,1,85.18,0Z" transform="translate(-1225.84 -212.12)"/><path class="cls-1" d="M1271.06,212.87h-45.22v90.46h45.22a45.23,45.23,0,1,0,0-90.46Zm20,46.64v.11a2.17,2.17,0,0,1,0,.26s0,.09,0,.13a1,1,0,0,1,0,.18c0,.24,0,.48-.05.71a.39.39,0,0,1,0,.11.84.84,0,0,1,0,.17c0,.05,0,.09,0,.15a.13.13,0,0,1,0,.06,0,0,0,0,1,0,0,4.35,4.35,0,0,1-.09.73,9.27,9.27,0,0,1-.17.93s0,.07,0,.1a8.57,8.57,0,0,1-.25,1c-.08.32-.19.64-.29,1a13.74,13.74,0,0,1-.55,1.41,4.64,4.64,0,0,1-.23.52l-.22.46,0,.06-.21.39,0,.05a18.44,18.44,0,0,1-16.19,9.63h-19.15V240.85h19.15a18.43,18.43,0,0,1,18.33,16.54,1.69,1.69,0,0,1,0,.32c0,.2,0,.39,0,.59s0,.64,0,1A1.84,1.84,0,0,1,1291,259.51Z" transform="translate(-1225.84 -212.12)"/></svg>