<svg id="Layer_1" data-name="Layer 1" xmlns="http://www.w3.org/2000/svg" viewBox="0 0 118.13 27"><defs><style>.cls-1{fill:#00aeef;}</style></defs><title>don2</title><path class="cls-1" d="M85.5,288H72v27H85.5a13.5,13.5,0,0,0,0-27Zm7.16,20.66a10.09,10.09,0,0,1-7.16,3H75.38V291.38H85.5a10.12,10.12,0,0,1,7.16,17.28Z" transform="translate(-72 -288)"/><path class="cls-1" d="M144.56,288h-27a13.5,13.5,0,0,0,0,27h27a13.5,13.5,0,0,0,0-27Zm7.16,20.66a10.09,10.09,0,0,1-7.16,3h-27a10.13,10.13,0,0,1,0-20.25h27a10.12,10.12,0,0,1,7.16,17.28Z" transform="translate(-72 -288)"/><path class="cls-1" d="M190.13,301.5V315h-3.37V301.5a10.13,10.13,0,0,0-20.25,0V315h-3.37V301.5a13.5,13.5,0,0,1,27,0Z" transform="translate(-72 -288)"/></svg>